<?xml version="1.0" encoding="UTF-8" standalone="no"?>
<!DOCTYPE svg PUBLIC "-//W3C//DTD SVG 1.1//EN"
 "http://www.w3.org/Graphics/SVG/1.1/DTD/svg11.dtd">
<!-- Generated by graphviz version 10.0.1 (0)
 -->
<!-- Title: graphname Pages: 1 -->
<svg width="1078pt" height="746pt"
 viewBox="0.00 0.00 1077.93 746.00" xmlns="http://www.w3.org/2000/svg" xmlns:xlink="http://www.w3.org/1999/xlink">
<g id="graph0" class="graph" transform="scale(1 1) rotate(0) translate(4 742)">
<title>graphname</title>
<polygon fill="white" stroke="none" points="-4,4 -4,-742 1073.93,-742 1073.93,4 -4,4"/>
<g id="clust2" class="cluster">
<title>cluster_1</title>
<polygon fill="none" stroke="black" points="8.93,-8 8.93,-730 1061.93,-730 1061.93,-8 8.93,-8"/>
<text text-anchor="middle" x="535.43" y="-712.7" font-family="Times,serif" font-size="14.00">packages</text>
</g>
<g id="clust3" class="cluster">
<title>cluster_2</title>
<polygon fill="none" stroke="black" points="16.93,-16 16.93,-696.75 1053.93,-696.75 1053.93,-16 16.93,-16"/>
<text text-anchor="middle" x="535.43" y="-679.45" font-family="Times,serif" font-size="14.00">starlight</text>
</g>
<g id="clust4" class="cluster">
<title>cluster_3</title>
<polygon fill="none" stroke="black" points="47.93,-420.75 47.93,-618.5 846.93,-618.5 846.93,-420.75 47.93,-420.75"/>
<text text-anchor="middle" x="447.43" y="-601.2" font-family="Times,serif" font-size="14.00">integrations</text>
</g>
<g id="clust5" class="cluster">
<title>cluster_4</title>
<polygon fill="none" stroke="black" points="337.93,-428.75 337.93,-585.25 584.93,-585.25 584.93,-428.75 337.93,-428.75"/>
<text text-anchor="middle" x="461.43" y="-567.95" font-family="Times,serif" font-size="14.00">expressive&#45;code</text>
</g>
<g id="clust6" class="cluster">
<title>cluster_5</title>
<polygon fill="none" stroke="black" points="592.93,-428.75 592.93,-507 736.93,-507 736.93,-428.75 592.93,-428.75"/>
<text text-anchor="middle" x="664.93" y="-489.7" font-family="Times,serif" font-size="14.00">shared</text>
</g>
<g id="clust7" class="cluster">
<title>cluster_6</title>
<polygon fill="none" stroke="black" points="24.93,-24 24.93,-175.25 1045.93,-175.25 1045.93,-24 24.93,-24"/>
<text text-anchor="middle" x="535.43" y="-157.95" font-family="Times,serif" font-size="14.00">schemas</text>
</g>
<g id="clust8" class="cluster">
<title>cluster_7</title>
<polygon fill="none" stroke="black" points="874.93,-183.25 874.93,-261.5 975.93,-261.5 975.93,-183.25 874.93,-183.25"/>
<text text-anchor="middle" x="925.43" y="-244.2" font-family="Times,serif" font-size="14.00">translations</text>
</g>
<g id="clust9" class="cluster">
<title>cluster_8</title>
<polygon fill="none" stroke="black" points="512.93,-183.25 512.93,-412.75 866.93,-412.75 866.93,-183.25 512.93,-183.25"/>
<text text-anchor="middle" x="689.93" y="-395.45" font-family="Times,serif" font-size="14.00">utils</text>
</g>
<!-- packages/starlight/index.ts -->
<g id="node1" class="node">
<title>packages/starlight/index.ts</title>
<polygon fill="orange" stroke="black" points="544.43,-627 544.43,-663 617.43,-663 617.43,-627 544.43,-627"/>
<text text-anchor="middle" x="580.93" y="-640.33" font-family="Times,serif" font-size="14.00">index.ts</text>
</g>
<!-- packages/starlight/integrations/asides.ts -->
<g id="node2" class="node">
<title>packages/starlight/integrations/asides.ts</title>
<polygon fill="none" stroke="black" points="593.43,-515.5 593.43,-551.5 672.43,-551.5 672.43,-515.5 593.43,-515.5"/>
<text text-anchor="middle" x="632.93" y="-528.83" font-family="Times,serif" font-size="14.00">asides.ts</text>
</g>
<!-- packages/starlight/index.ts&#45;&gt;packages/starlight/integrations/asides.ts -->
<g id="edge1" class="edge">
<title>packages/starlight/index.ts&#45;&gt;packages/starlight/integrations/asides.ts</title>
<path fill="none" stroke="orange" d="M589.05,-626.89C597.28,-609.56 610.15,-582.46 619.83,-562.09"/>
<polygon fill="orange" stroke="orange" points="622.91,-563.75 624.04,-553.22 616.59,-560.75 622.91,-563.75"/>
</g>
<!-- packages/starlight/integrations/expressive&#45;code/index.ts -->
<g id="node3" class="node">
<title>packages/starlight/integrations/expressive&#45;code/index.ts</title>
<polygon fill="none" stroke="black" points="493.43,-515.5 493.43,-551.5 566.43,-551.5 566.43,-515.5 493.43,-515.5"/>
<text text-anchor="middle" x="529.93" y="-528.83" font-family="Times,serif" font-size="14.00">index.ts</text>
</g>
<!-- packages/starlight/index.ts&#45;&gt;packages/starlight/integrations/expressive&#45;code/index.ts -->
<g id="edge2" class="edge">
<title>packages/starlight/index.ts&#45;&gt;packages/starlight/integrations/expressive&#45;code/index.ts</title>
<path fill="none" stroke="orange" d="M572.96,-626.89C564.88,-609.56 552.26,-582.46 542.78,-562.09"/>
<polygon fill="orange" stroke="orange" points="546.04,-560.81 538.65,-553.22 539.7,-563.77 546.04,-560.81"/>
</g>
<!-- packages/starlight/integrations/sitemap.ts -->
<g id="node4" class="node">
<title>packages/starlight/integrations/sitemap.ts</title>
<polygon fill="none" stroke="black" points="238.43,-515.5 238.43,-551.5 329.43,-551.5 329.43,-515.5 238.43,-515.5"/>
<text text-anchor="middle" x="283.93" y="-528.83" font-family="Times,serif" font-size="14.00">sitemap.ts</text>
</g>
<!-- packages/starlight/index.ts&#45;&gt;packages/starlight/integrations/sitemap.ts -->
<g id="edge3" class="edge">
<title>packages/starlight/index.ts&#45;&gt;packages/starlight/integrations/sitemap.ts</title>
<path fill="none" stroke="orange" d="M544.17,-644.17C484.03,-643.8 367.9,-640.2 333.93,-618.5 313.72,-605.59 300.59,-581.35 292.88,-562.21"/>
<polygon fill="orange" stroke="orange" points="296.25,-561.23 289.48,-553.08 289.69,-563.67 296.25,-561.23"/>
</g>
<!-- packages/starlight/integrations/virtual&#45;user&#45;config.ts -->
<g id="node5" class="node">
<title>packages/starlight/integrations/virtual&#45;user&#45;config.ts</title>
<polygon fill="none" stroke="black" points="55.68,-515.5 55.68,-551.5 220.18,-551.5 220.18,-515.5 55.68,-515.5"/>
<text text-anchor="middle" x="137.93" y="-528.83" font-family="Times,serif" font-size="14.00">virtual&#45;user&#45;config.ts</text>
</g>
<!-- packages/starlight/index.ts&#45;&gt;packages/starlight/integrations/virtual&#45;user&#45;config.ts -->
<g id="edge4" class="edge">
<title>packages/starlight/index.ts&#45;&gt;packages/starlight/integrations/virtual&#45;user&#45;config.ts</title>
<path fill="none" stroke="orange" d="M544.19,-644.35C465.98,-644.6 285.63,-642.46 229.93,-618.5 200.77,-605.96 174.81,-580.19 157.96,-560.48"/>
<polygon fill="orange" stroke="orange" points="160.69,-558.3 151.63,-552.82 155.3,-562.76 160.69,-558.3"/>
</g>
<!-- packages/starlight/integrations/code&#45;rtl&#45;support.ts -->
<g id="node6" class="node">
<title>packages/starlight/integrations/code&#45;rtl&#45;support.ts</title>
<polygon fill="none" stroke="black" points="690.55,-515.5 690.55,-551.5 839.3,-551.5 839.3,-515.5 690.55,-515.5"/>
<text text-anchor="middle" x="764.93" y="-528.83" font-family="Times,serif" font-size="14.00">code&#45;rtl&#45;support.ts</text>
</g>
<!-- packages/starlight/index.ts&#45;&gt;packages/starlight/integrations/code&#45;rtl&#45;support.ts -->
<g id="edge5" class="edge">
<title>packages/starlight/index.ts&#45;&gt;packages/starlight/integrations/code&#45;rtl&#45;support.ts</title>
<path fill="none" stroke="orange" d="M617.78,-639.62C637.76,-636.06 662.3,-629.72 681.93,-618.5 707.35,-603.96 730.25,-579.49 745.52,-560.7"/>
<polygon fill="orange" stroke="orange" points="748.21,-562.95 751.65,-552.93 742.71,-558.61 748.21,-562.95"/>
</g>
<!-- packages/starlight/utils/translations&#45;fs.ts -->
<g id="node7" class="node">
<title>packages/starlight/utils/translations&#45;fs.ts</title>
<polygon fill="none" stroke="black" points="637.55,-343 637.55,-379 774.3,-379 774.3,-343 637.55,-343"/>
<text text-anchor="middle" x="705.93" y="-356.32" font-family="Times,serif" font-size="14.00">translations&#45;fs.ts</text>
</g>
<!-- packages/starlight/index.ts&#45;&gt;packages/starlight/utils/translations&#45;fs.ts -->
<g id="edge6" class="edge">
<title>packages/starlight/index.ts&#45;&gt;packages/starlight/utils/translations&#45;fs.ts</title>
<path fill="none" stroke="orange" d="M617.79,-643.22C688.05,-641.34 835.54,-635.41 850.93,-618.5 865.71,-602.25 865.51,-437.18 850.93,-420.75 840.97,-409.54 798.02,-417.86 783.93,-412.75 766.77,-406.53 749.57,-395.92 735.71,-386.01"/>
<polygon fill="orange" stroke="orange" points="738.02,-383.36 727.9,-380.22 733.85,-388.98 738.02,-383.36"/>
</g>
<!-- packages/starlight/utils/plugins.ts -->
<g id="node8" class="node">
<title>packages/starlight/utils/plugins.ts</title>
<polygon fill="none" stroke="black" points="540.68,-270 540.68,-306 627.18,-306 627.18,-270 540.68,-270"/>
<text text-anchor="middle" x="583.93" y="-283.32" font-family="Times,serif" font-size="14.00">plugins.ts</text>
</g>
<!-- packages/starlight/index.ts&#45;&gt;packages/starlight/utils/plugins.ts -->
<g id="edge7" class="edge">
<title>packages/starlight/index.ts&#45;&gt;packages/starlight/utils/plugins.ts</title>
<path fill="none" stroke="orange" d="M617.7,-643.31C689.89,-641.57 844.54,-635.84 860.93,-618.5 945.19,-529.3 947.76,-435.68 867.93,-342.5 835.97,-305.2 703.49,-317.18 638.73,-306.52"/>
<polygon fill="orange" stroke="orange" points="639.44,-303.1 628.94,-304.55 638.06,-309.96 639.44,-303.1"/>
</g>
<!-- packages/starlight/types.ts -->
<g id="node9" class="node">
<title>packages/starlight/types.ts</title>
<polygon fill="none" stroke="black" points="319.43,-343 319.43,-379 392.43,-379 392.43,-343 319.43,-343"/>
<text text-anchor="middle" x="355.93" y="-356.32" font-family="Times,serif" font-size="14.00">types.ts</text>
</g>
<!-- packages/starlight/index.ts&#45;&gt;packages/starlight/types.ts -->
<g id="edge8" class="edge">
<title>packages/starlight/index.ts&#45;&gt;packages/starlight/types.ts</title>
<path fill="none" stroke="orange" d="M544.11,-643.63C425.68,-642.26 61.18,-636.59 43.93,-618.5 -16.73,-554.9 -12.18,-488.4 43.93,-420.75 76.92,-380.97 228.99,-367.94 307.98,-363.82"/>
<polygon fill="orange" stroke="orange" points="307.76,-367.34 317.57,-363.35 307.41,-360.35 307.76,-367.34"/>
</g>
<!-- packages/starlight/integrations/asides.ts&#45;&gt;packages/starlight/utils/translations&#45;fs.ts -->
<g id="edge10" class="edge">
<title>packages/starlight/integrations/asides.ts&#45;&gt;packages/starlight/utils/translations&#45;fs.ts</title>
<path fill="none" stroke="#788afe" d="M672.81,-517.41C675.87,-516.51 678.93,-515.69 681.93,-515 697.39,-511.42 742.35,-518.84 752.93,-507 778.47,-478.42 765.62,-456.92 752.93,-420.75 748.62,-408.48 740.56,-396.87 732.31,-387.26"/>
<polygon fill="#788afe" stroke="#788afe" points="735.15,-385.17 725.81,-380.16 729.98,-389.9 735.15,-385.17"/>
</g>
<!-- packages/starlight/integrations/asides.ts&#45;&gt;packages/starlight/types.ts -->
<g id="edge9" class="edge">
<title>packages/starlight/integrations/asides.ts&#45;&gt;packages/starlight/types.ts</title>
<path fill="none" stroke="#788afe" d="M593.31,-516.03C591.84,-515.65 590.38,-515.3 588.93,-515 575.05,-512.12 343.79,-517.18 333.93,-507 303.71,-475.82 323.51,-421.83 340.11,-389.26"/>
<polygon fill="#788afe" stroke="#788afe" points="342.98,-391.3 344.6,-380.83 336.81,-388.01 342.98,-391.3"/>
</g>
<!-- packages/starlight/integrations/shared/pathToLocale.ts -->
<g id="node10" class="node">
<title>packages/starlight/integrations/shared/pathToLocale.ts</title>
<polygon fill="none" stroke="black" points="600.68,-437.25 600.68,-473.25 729.18,-473.25 729.18,-437.25 600.68,-437.25"/>
<text text-anchor="middle" x="664.93" y="-450.57" font-family="Times,serif" font-size="14.00">pathToLocale.ts</text>
</g>
<!-- packages/starlight/integrations/asides.ts&#45;&gt;packages/starlight/integrations/shared/pathToLocale.ts -->
<g id="edge11" class="edge">
<title>packages/starlight/integrations/asides.ts&#45;&gt;packages/starlight/integrations/shared/pathToLocale.ts</title>
<path fill="none" stroke="#788afe" d="M640.19,-515.2C644.05,-506 648.89,-494.47 653.26,-484.06"/>
<polygon fill="#788afe" stroke="#788afe" points="656.35,-485.72 657,-475.14 649.9,-483.01 656.35,-485.72"/>
</g>
<!-- packages/starlight/integrations/expressive&#45;code/index.ts&#45;&gt;packages/starlight/utils/translations&#45;fs.ts -->
<g id="edge24" class="edge">
<title>packages/starlight/integrations/expressive&#45;code/index.ts&#45;&gt;packages/starlight/utils/translations&#45;fs.ts</title>
<path fill="none" stroke="#4f3a46" d="M566.83,-516.05C568.2,-515.66 569.57,-515.31 570.93,-515 589.36,-510.78 727.87,-520.68 740.93,-507 754.16,-493.13 746.01,-439.23 740.93,-420.75 737.84,-409.54 731.99,-398.3 725.94,-388.7"/>
<polygon fill="#4f3a46" stroke="#4f3a46" points="729,-386.98 720.52,-380.62 723.19,-390.88 729,-386.98"/>
</g>
<!-- packages/starlight/integrations/expressive&#45;code/index.ts&#45;&gt;packages/starlight/types.ts -->
<g id="edge23" class="edge">
<title>packages/starlight/integrations/expressive&#45;code/index.ts&#45;&gt;packages/starlight/types.ts</title>
<path fill="none" stroke="#4f3a46" d="M493.04,-515.8C492,-515.51 490.96,-515.24 489.93,-515 470.64,-510.51 325.61,-521.31 311.93,-507 285.44,-479.29 299.82,-457.12 311.93,-420.75 315.89,-408.84 323.32,-397.39 330.96,-387.82"/>
<polygon fill="#4f3a46" stroke="#4f3a46" points="333.45,-390.3 337.26,-380.42 328.12,-385.76 333.45,-390.3"/>
</g>
<!-- packages/starlight/integrations/expressive&#45;code/index.ts&#45;&gt;packages/starlight/integrations/shared/pathToLocale.ts -->
<g id="edge25" class="edge">
<title>packages/starlight/integrations/expressive&#45;code/index.ts&#45;&gt;packages/starlight/integrations/shared/pathToLocale.ts</title>
<path fill="none" stroke="#4f3a46" d="M566.61,-516.8C577.87,-511.95 587.66,-507.69 588.93,-507 603.62,-499.01 619.1,-488.99 632.22,-479.97"/>
<polygon fill="#4f3a46" stroke="#4f3a46" points="633.88,-483.08 640.08,-474.49 629.87,-477.34 633.88,-483.08"/>
</g>
<!-- packages/starlight/integrations/expressive&#45;code/theming.ts -->
<g id="node20" class="node">
<title>packages/starlight/integrations/expressive&#45;code/theming.ts</title>
<polygon fill="none" stroke="black" points="483.3,-437.25 483.3,-473.25 576.55,-473.25 576.55,-437.25 483.3,-437.25"/>
<text text-anchor="middle" x="529.93" y="-450.57" font-family="Times,serif" font-size="14.00">theming.ts</text>
</g>
<!-- packages/starlight/integrations/expressive&#45;code/index.ts&#45;&gt;packages/starlight/integrations/expressive&#45;code/theming.ts -->
<g id="edge26" class="edge">
<title>packages/starlight/integrations/expressive&#45;code/index.ts&#45;&gt;packages/starlight/integrations/expressive&#45;code/theming.ts</title>
<path fill="none" stroke="#4f3a46" d="M529.93,-515.2C529.93,-506.29 529.93,-495.2 529.93,-485.05"/>
<polygon fill="#4f3a46" stroke="#4f3a46" points="533.43,-485.26 529.93,-475.26 526.43,-485.26 533.43,-485.26"/>
</g>
<!-- packages/starlight/integrations/expressive&#45;code/translations.ts -->
<g id="node21" class="node">
<title>packages/starlight/integrations/expressive&#45;code/translations.ts</title>
<polygon fill="none" stroke="black" points="346.18,-437.25 346.18,-473.25 465.68,-473.25 465.68,-437.25 346.18,-437.25"/>
<text text-anchor="middle" x="405.93" y="-450.57" font-family="Times,serif" font-size="14.00">translations.ts</text>
</g>
<!-- packages/starlight/integrations/expressive&#45;code/index.ts&#45;&gt;packages/starlight/integrations/expressive&#45;code/translations.ts -->
<g id="edge27" class="edge">
<title>packages/starlight/integrations/expressive&#45;code/index.ts&#45;&gt;packages/starlight/integrations/expressive&#45;code/translations.ts</title>
<path fill="none" stroke="#4f3a46" d="M493,-516.4C484.97,-512.73 477.74,-509.26 473.93,-507 460.82,-499.25 447.21,-489.48 435.64,-480.59"/>
<polygon fill="#4f3a46" stroke="#4f3a46" points="438.07,-478.05 428.04,-474.64 433.76,-483.56 438.07,-478.05"/>
</g>
<!-- packages/starlight/integrations/sitemap.ts&#45;&gt;packages/starlight/types.ts -->
<g id="edge42" class="edge">
<title>packages/starlight/integrations/sitemap.ts&#45;&gt;packages/starlight/types.ts</title>
<path fill="none" stroke="#77dd58" d="M283.69,-515.31C284.02,-492.55 286.92,-451.69 301.93,-420.75 307.91,-408.41 317.34,-396.83 326.66,-387.26"/>
<polygon fill="#77dd58" stroke="#77dd58" points="328.92,-389.95 333.64,-380.46 324.04,-384.93 328.92,-389.95"/>
</g>
<!-- packages/starlight/utils/user&#45;config.ts -->
<g id="node11" class="node">
<title>packages/starlight/utils/user&#45;config.ts</title>
<polygon fill="none" stroke="black" points="520.55,-191.75 520.55,-227.75 633.3,-227.75 633.3,-191.75 520.55,-191.75"/>
<text text-anchor="middle" x="576.93" y="-205.07" font-family="Times,serif" font-size="14.00">user&#45;config.ts</text>
</g>
<!-- packages/starlight/integrations/virtual&#45;user&#45;config.ts&#45;&gt;packages/starlight/utils/user&#45;config.ts -->
<g id="edge43" class="edge">
<title>packages/starlight/integrations/virtual&#45;user&#45;config.ts&#45;&gt;packages/starlight/utils/user&#45;config.ts</title>
<path fill="none" stroke="#5ff481" d="M142.06,-515.33C154.45,-467.79 196,-333.73 283.93,-269.5 319.04,-243.85 433.82,-226.6 508.86,-217.75"/>
<polygon fill="#5ff481" stroke="#5ff481" points="509.05,-221.25 518.58,-216.62 508.25,-214.29 509.05,-221.25"/>
</g>
<!-- packages/starlight/utils/translations&#45;fs.ts&#45;&gt;packages/starlight/utils/user&#45;config.ts -->
<g id="edge30" class="edge">
<title>packages/starlight/utils/translations&#45;fs.ts&#45;&gt;packages/starlight/utils/user&#45;config.ts</title>
<path fill="none" stroke="#600f5f" d="M637.11,-342.99C591.4,-331 538.59,-315.52 531.93,-306.5 515.95,-284.88 532.95,-256.69 550.44,-236.5"/>
<polygon fill="#600f5f" stroke="#600f5f" points="552.93,-238.97 557.11,-229.23 547.77,-234.24 552.93,-238.97"/>
</g>
<!-- packages/starlight/schemas/i18n.ts -->
<g id="node22" class="node">
<title>packages/starlight/schemas/i18n.ts</title>
<polygon fill="none" stroke="black" points="972.18,-105.5 972.18,-141.5 1037.68,-141.5 1037.68,-105.5 972.18,-105.5"/>
<text text-anchor="middle" x="1004.93" y="-118.83" font-family="Times,serif" font-size="14.00">i18n.ts</text>
</g>
<!-- packages/starlight/utils/translations&#45;fs.ts&#45;&gt;packages/starlight/schemas/i18n.ts -->
<g id="edge28" class="edge">
<title>packages/starlight/utils/translations&#45;fs.ts&#45;&gt;packages/starlight/schemas/i18n.ts</title>
<path fill="none" stroke="#600f5f" d="M774.53,-343.92C846.71,-325.58 953.47,-293.9 979.93,-261.5 1004.92,-230.88 1008.19,-183.5 1007.28,-153.25"/>
<polygon fill="#600f5f" stroke="#600f5f" points="1010.78,-153.14 1006.79,-143.33 1003.79,-153.49 1010.78,-153.14"/>
</g>
<!-- packages/starlight/utils/createTranslationSystem.ts -->
<g id="node23" class="node">
<title>packages/starlight/utils/createTranslationSystem.ts</title>
<polygon fill="none" stroke="black" points="645.3,-270 645.3,-306 858.55,-306 858.55,-270 645.3,-270"/>
<text text-anchor="middle" x="751.93" y="-283.32" font-family="Times,serif" font-size="14.00">createTranslationSystem.ts</text>
</g>
<!-- packages/starlight/utils/translations&#45;fs.ts&#45;&gt;packages/starlight/utils/createTranslationSystem.ts -->
<g id="edge29" class="edge">
<title>packages/starlight/utils/translations&#45;fs.ts&#45;&gt;packages/starlight/utils/createTranslationSystem.ts</title>
<path fill="none" stroke="#600f5f" d="M717.06,-342.81C722.37,-334.62 728.85,-324.62 734.77,-315.48"/>
<polygon fill="#600f5f" stroke="#600f5f" points="737.57,-317.59 740.07,-307.3 731.7,-313.79 737.57,-317.59"/>
</g>
<!-- packages/starlight/utils/plugins.ts&#45;&gt;packages/starlight/utils/user&#45;config.ts -->
<g id="edge40" class="edge">
<title>packages/starlight/utils/plugins.ts&#45;&gt;packages/starlight/utils/user&#45;config.ts</title>
<path fill="none" stroke="#707b68" d="M582.34,-269.7C581.52,-260.79 580.5,-249.7 579.57,-239.55"/>
<polygon fill="#707b68" stroke="#707b68" points="583.07,-239.39 578.67,-229.75 576.1,-240.03 583.07,-239.39"/>
</g>
<!-- packages/starlight/utils/error&#45;map.ts -->
<g id="node27" class="node">
<title>packages/starlight/utils/error&#45;map.ts</title>
<polygon fill="none" stroke="black" points="650.93,-191.75 650.93,-227.75 756.93,-227.75 756.93,-191.75 650.93,-191.75"/>
<text text-anchor="middle" x="703.93" y="-205.07" font-family="Times,serif" font-size="14.00">error&#45;map.ts</text>
</g>
<!-- packages/starlight/utils/plugins.ts&#45;&gt;packages/starlight/utils/error&#45;map.ts -->
<g id="edge41" class="edge">
<title>packages/starlight/utils/plugins.ts&#45;&gt;packages/starlight/utils/error&#45;map.ts</title>
<path fill="none" stroke="#707b68" d="M627.05,-269.62C632.17,-267.1 637.24,-264.38 641.93,-261.5 654.03,-254.08 666.34,-244.5 676.77,-235.67"/>
<polygon fill="#707b68" stroke="#707b68" points="679,-238.37 684.25,-229.17 674.41,-233.09 679,-238.37"/>
</g>
<!-- packages/starlight/types.ts&#45;&gt;packages/starlight/utils/plugins.ts -->
<g id="edge13" class="edge">
<title>packages/starlight/types.ts&#45;&gt;packages/starlight/utils/plugins.ts</title>
<path fill="none" stroke="#826864" d="M392.9,-349.88C427.14,-340.33 479.69,-325.23 529.31,-308.99"/>
<polygon fill="#826864" stroke="#826864" points="530.35,-312.34 538.74,-305.88 528.15,-305.69 530.35,-312.34"/>
</g>
<!-- packages/starlight/types.ts&#45;&gt;packages/starlight/utils/user&#45;config.ts -->
<g id="edge12" class="edge">
<title>packages/starlight/types.ts&#45;&gt;packages/starlight/utils/user&#45;config.ts</title>
<path fill="none" stroke="#826864" d="M381.71,-342.59C421.38,-315.79 497.47,-264.41 542.03,-234.31"/>
<polygon fill="#826864" stroke="#826864" points="543.72,-237.4 550.05,-228.9 539.81,-231.6 543.72,-237.4"/>
</g>
<!-- packages/starlight/integrations/shared/pathToLocale.ts&#45;&gt;packages/starlight/types.ts -->
<g id="edge35" class="edge">
<title>packages/starlight/integrations/shared/pathToLocale.ts&#45;&gt;packages/starlight/types.ts</title>
<path fill="none" stroke="#f33f6d" d="M631.7,-436.88C618.69,-430.81 603.43,-424.57 588.93,-420.75 554.37,-411.65 543.87,-420.2 508.93,-412.75 472.73,-405.04 433.09,-391.75 403.24,-380.7"/>
<polygon fill="#f33f6d" stroke="#f33f6d" points="404.71,-377.52 394.12,-377.28 402.25,-384.07 404.71,-377.52"/>
</g>
<!-- packages/starlight/schemas/components.ts -->
<g id="node12" class="node">
<title>packages/starlight/schemas/components.ts</title>
<polygon fill="none" stroke="black" points="637.8,-105.5 637.8,-141.5 758.05,-141.5 758.05,-105.5 637.8,-105.5"/>
<text text-anchor="middle" x="697.93" y="-118.83" font-family="Times,serif" font-size="14.00">components.ts</text>
</g>
<!-- packages/starlight/utils/user&#45;config.ts&#45;&gt;packages/starlight/schemas/components.ts -->
<g id="edge14" class="edge">
<title>packages/starlight/utils/user&#45;config.ts&#45;&gt;packages/starlight/schemas/components.ts</title>
<path fill="none" stroke="#de6a2d" d="M604.66,-191.33C612.57,-186.25 621.14,-180.61 628.93,-175.25 641.29,-166.73 654.64,-157.03 666.27,-148.41"/>
<polygon fill="#de6a2d" stroke="#de6a2d" points="668.04,-151.46 673.97,-142.68 663.86,-145.85 668.04,-151.46"/>
</g>
<!-- packages/starlight/schemas/expressiveCode.ts -->
<g id="node13" class="node">
<title>packages/starlight/schemas/expressiveCode.ts</title>
<polygon fill="none" stroke="black" points="32.68,-105.5 32.68,-141.5 179.18,-141.5 179.18,-105.5 32.68,-105.5"/>
<text text-anchor="middle" x="105.93" y="-118.83" font-family="Times,serif" font-size="14.00">expressiveCode.ts</text>
</g>
<!-- packages/starlight/utils/user&#45;config.ts&#45;&gt;packages/starlight/schemas/expressiveCode.ts -->
<g id="edge15" class="edge">
<title>packages/starlight/utils/user&#45;config.ts&#45;&gt;packages/starlight/schemas/expressiveCode.ts</title>
<path fill="none" stroke="#de6a2d" d="M520.23,-204.19C414.39,-195.64 196.69,-177.8 188.93,-175.25 170.5,-169.2 151.9,-158.36 136.99,-148.25"/>
<polygon fill="#de6a2d" stroke="#de6a2d" points="139.2,-145.53 129.01,-142.64 135.18,-151.25 139.2,-145.53"/>
</g>
<!-- packages/starlight/schemas/favicon.ts -->
<g id="node14" class="node">
<title>packages/starlight/schemas/favicon.ts</title>
<polygon fill="none" stroke="black" points="366.43,-105.5 366.43,-141.5 451.43,-141.5 451.43,-105.5 366.43,-105.5"/>
<text text-anchor="middle" x="408.93" y="-118.83" font-family="Times,serif" font-size="14.00">favicon.ts</text>
</g>
<!-- packages/starlight/utils/user&#45;config.ts&#45;&gt;packages/starlight/schemas/favicon.ts -->
<g id="edge16" class="edge">
<title>packages/starlight/utils/user&#45;config.ts&#45;&gt;packages/starlight/schemas/favicon.ts</title>
<path fill="none" stroke="#de6a2d" d="M520.08,-198.26C500.49,-193.14 478.95,-185.74 460.93,-175.25 449.69,-168.71 439.07,-159.21 430.4,-150.19"/>
<polygon fill="#de6a2d" stroke="#de6a2d" points="433.08,-147.94 423.74,-142.93 427.91,-152.66 433.08,-147.94"/>
</g>
<!-- packages/starlight/schemas/head.ts -->
<g id="node15" class="node">
<title>packages/starlight/schemas/head.ts</title>
<polygon fill="none" stroke="black" points="469.68,-105.5 469.68,-141.5 538.18,-141.5 538.18,-105.5 469.68,-105.5"/>
<text text-anchor="middle" x="503.93" y="-118.83" font-family="Times,serif" font-size="14.00">head.ts</text>
</g>
<!-- packages/starlight/utils/user&#45;config.ts&#45;&gt;packages/starlight/schemas/head.ts -->
<g id="edge17" class="edge">
<title>packages/starlight/utils/user&#45;config.ts&#45;&gt;packages/starlight/schemas/head.ts</title>
<path fill="none" stroke="#de6a2d" d="M561.26,-191.44C556.62,-186.26 551.54,-180.55 546.93,-175.25 539.98,-167.28 532.51,-158.52 525.77,-150.55"/>
<polygon fill="#de6a2d" stroke="#de6a2d" points="528.64,-148.53 519.51,-143.14 523.28,-153.04 528.64,-148.53"/>
</g>
<!-- packages/starlight/schemas/logo.ts -->
<g id="node16" class="node">
<title>packages/starlight/schemas/logo.ts</title>
<polygon fill="none" stroke="black" points="555.93,-105.5 555.93,-141.5 619.93,-141.5 619.93,-105.5 555.93,-105.5"/>
<text text-anchor="middle" x="587.93" y="-118.83" font-family="Times,serif" font-size="14.00">logo.ts</text>
</g>
<!-- packages/starlight/utils/user&#45;config.ts&#45;&gt;packages/starlight/schemas/logo.ts -->
<g id="edge18" class="edge">
<title>packages/starlight/utils/user&#45;config.ts&#45;&gt;packages/starlight/schemas/logo.ts</title>
<path fill="none" stroke="#de6a2d" d="M579.21,-191.29C580.64,-180.34 582.52,-165.94 584.16,-153.32"/>
<polygon fill="#de6a2d" stroke="#de6a2d" points="587.63,-153.8 585.45,-143.44 580.69,-152.9 587.63,-153.8"/>
</g>
<!-- packages/starlight/schemas/sidebar.ts -->
<g id="node17" class="node">
<title>packages/starlight/schemas/sidebar.ts</title>
<polygon fill="none" stroke="black" points="868.05,-105.5 868.05,-141.5 953.8,-141.5 953.8,-105.5 868.05,-105.5"/>
<text text-anchor="middle" x="910.93" y="-118.83" font-family="Times,serif" font-size="14.00">sidebar.ts</text>
</g>
<!-- packages/starlight/utils/user&#45;config.ts&#45;&gt;packages/starlight/schemas/sidebar.ts -->
<g id="edge19" class="edge">
<title>packages/starlight/utils/user&#45;config.ts&#45;&gt;packages/starlight/schemas/sidebar.ts</title>
<path fill="none" stroke="#de6a2d" d="M615.11,-191.31C623.76,-188.06 633.03,-185.1 641.93,-183.25 665.55,-178.33 836.75,-184.76 858.93,-175.25 871.44,-169.88 882.65,-160.02 891.43,-150.4"/>
<polygon fill="#de6a2d" stroke="#de6a2d" points="893.97,-152.81 897.79,-142.93 888.64,-148.28 893.97,-152.81"/>
</g>
<!-- packages/starlight/schemas/social.ts -->
<g id="node18" class="node">
<title>packages/starlight/schemas/social.ts</title>
<polygon fill="none" stroke="black" points="775.68,-105.5 775.68,-141.5 850.18,-141.5 850.18,-105.5 775.68,-105.5"/>
<text text-anchor="middle" x="812.93" y="-118.83" font-family="Times,serif" font-size="14.00">social.ts</text>
</g>
<!-- packages/starlight/utils/user&#45;config.ts&#45;&gt;packages/starlight/schemas/social.ts -->
<g id="edge20" class="edge">
<title>packages/starlight/utils/user&#45;config.ts&#45;&gt;packages/starlight/schemas/social.ts</title>
<path fill="none" stroke="#de6a2d" d="M615.5,-191.36C624.04,-188.15 633.17,-185.2 641.93,-183.25 669.1,-177.21 741.85,-187.34 766.93,-175.25 778.17,-169.83 787.93,-160.32 795.53,-150.98"/>
<polygon fill="#de6a2d" stroke="#de6a2d" points="798.27,-153.17 801.48,-143.07 792.67,-148.96 798.27,-153.17"/>
</g>
<!-- packages/starlight/schemas/tableOfContents.ts -->
<g id="node19" class="node">
<title>packages/starlight/schemas/tableOfContents.ts</title>
<polygon fill="none" stroke="black" points="197.43,-105.5 197.43,-141.5 348.43,-141.5 348.43,-105.5 197.43,-105.5"/>
<text text-anchor="middle" x="272.93" y="-118.83" font-family="Times,serif" font-size="14.00">tableOfContents.ts</text>
</g>
<!-- packages/starlight/utils/user&#45;config.ts&#45;&gt;packages/starlight/schemas/tableOfContents.ts -->
<g id="edge21" class="edge">
<title>packages/starlight/utils/user&#45;config.ts&#45;&gt;packages/starlight/schemas/tableOfContents.ts</title>
<path fill="none" stroke="#de6a2d" d="M520.11,-206.07C475.01,-202.52 410.95,-194.31 357.93,-175.25 339.62,-168.67 320.88,-157.99 305.67,-148.11"/>
<polygon fill="#de6a2d" stroke="#de6a2d" points="307.74,-145.29 297.49,-142.64 303.85,-151.11 307.74,-145.29"/>
</g>
<!-- packages/starlight/schemas/expressiveCode.ts&#45;&gt;packages/starlight/integrations/expressive&#45;code/index.ts -->
<g id="edge22" class="edge">
<title>packages/starlight/schemas/expressiveCode.ts&#45;&gt;packages/starlight/integrations/expressive&#45;code/index.ts</title>
<path fill="none" stroke="#7b6f3e" d="M108.16,-141.89C117.24,-204.45 157.52,-419.08 291.93,-507 308.48,-517.83 437.79,-511.67 481.71,-514.46"/>
<polygon fill="#7b6f3e" stroke="#7b6f3e" points="481.2,-517.93 491.54,-515.61 482.02,-510.97 481.2,-517.93"/>
</g>
<!-- packages/starlight/schemas/badge.ts -->
<g id="node25" class="node">
<title>packages/starlight/schemas/badge.ts</title>
<polygon fill="none" stroke="black" points="872.18,-32.5 872.18,-68.5 949.68,-68.5 949.68,-32.5 872.18,-32.5"/>
<text text-anchor="middle" x="910.93" y="-45.83" font-family="Times,serif" font-size="14.00">badge.ts</text>
</g>
<!-- packages/starlight/schemas/sidebar.ts&#45;&gt;packages/starlight/schemas/badge.ts -->
<g id="edge38" class="edge">
<title>packages/starlight/schemas/sidebar.ts&#45;&gt;packages/starlight/schemas/badge.ts</title>
<path fill="none" stroke="#324602" d="M910.93,-105.31C910.93,-97.73 910.93,-88.6 910.93,-80.04"/>
<polygon fill="#324602" stroke="#324602" points="914.43,-80.04 910.93,-70.04 907.43,-80.04 914.43,-80.04"/>
</g>
<!-- packages/starlight/utils/path.ts -->
<g id="node26" class="node">
<title>packages/starlight/utils/path.ts</title>
<polygon fill="none" stroke="black" points="792.8,-343 792.8,-379 859.05,-379 859.05,-343 792.8,-343"/>
<text text-anchor="middle" x="825.93" y="-356.32" font-family="Times,serif" font-size="14.00">path.ts</text>
</g>
<!-- packages/starlight/schemas/sidebar.ts&#45;&gt;packages/starlight/utils/path.ts -->
<g id="edge39" class="edge">
<title>packages/starlight/schemas/sidebar.ts&#45;&gt;packages/starlight/utils/path.ts</title>
<path fill="none" stroke="#324602" d="M925.64,-141.53C935.44,-152.16 949.04,-165.61 962.93,-175.25 969.79,-180.01 975.45,-176.2 979.93,-183.25 998.56,-212.61 996.63,-230.99 979.93,-261.5 956.69,-303.94 906.52,-330.76 869.73,-345.52"/>
<polygon fill="#324602" stroke="#324602" points="868.76,-342.15 860.68,-349 871.27,-348.68 868.76,-342.15"/>
</g>
<!-- packages/starlight/integrations/expressive&#45;code/translations.ts&#45;&gt;packages/starlight/utils/translations&#45;fs.ts -->
<g id="edge37" class="edge">
<title>packages/starlight/integrations/expressive&#45;code/translations.ts&#45;&gt;packages/starlight/utils/translations&#45;fs.ts</title>
<path fill="none" stroke="#a0ddee" d="M434.7,-436.83C446.44,-430.6 460.42,-424.25 473.93,-420.75 508.39,-411.81 600.27,-424.35 633.93,-412.75 650.33,-407.09 666.34,-396.48 679.08,-386.42"/>
<polygon fill="#a0ddee" stroke="#a0ddee" points="681.09,-389.3 686.57,-380.23 676.63,-383.9 681.09,-389.3"/>
</g>
<!-- packages/starlight/integrations/expressive&#45;code/translations.ts&#45;&gt;packages/starlight/types.ts -->
<g id="edge36" class="edge">
<title>packages/starlight/integrations/expressive&#45;code/translations.ts&#45;&gt;packages/starlight/types.ts</title>
<path fill="none" stroke="#a0ddee" d="M396.52,-436.9C389.26,-423.5 379.07,-404.7 370.72,-389.29"/>
<polygon fill="#a0ddee" stroke="#a0ddee" points="373.85,-387.73 366.01,-380.6 367.7,-391.06 373.85,-387.73"/>
</g>
<!-- packages/starlight/utils/createTranslationSystem.ts&#45;&gt;packages/starlight/utils/user&#45;config.ts -->
<g id="edge33" class="edge">
<title>packages/starlight/utils/createTranslationSystem.ts&#45;&gt;packages/starlight/utils/user&#45;config.ts</title>
<path fill="none" stroke="#7cebdb" d="M661.66,-269.51C654.86,-267.15 648.21,-264.5 641.93,-261.5 628.06,-254.88 614.4,-244.89 603.2,-235.53"/>
<polygon fill="#7cebdb" stroke="#7cebdb" points="605.79,-233.13 595.94,-229.21 601.19,-238.41 605.79,-233.13"/>
</g>
<!-- packages/starlight/utils/createTranslationSystem.ts&#45;&gt;packages/starlight/schemas/i18n.ts -->
<g id="edge31" class="edge">
<title>packages/starlight/utils/createTranslationSystem.ts&#45;&gt;packages/starlight/schemas/i18n.ts</title>
<path fill="none" stroke="#7cebdb" d="M765.49,-269.7C785.58,-245.52 825.77,-202.44 870.93,-183.25 908.7,-167.2 926.58,-194.32 962.93,-175.25 973.45,-169.73 982.35,-160.33 989.21,-151.11"/>
<polygon fill="#7cebdb" stroke="#7cebdb" points="992.01,-153.22 994.75,-142.99 986.23,-149.27 992.01,-153.22"/>
</g>
<!-- packages/starlight/translations/index.ts -->
<g id="node24" class="node">
<title>packages/starlight/translations/index.ts</title>
<polygon fill="none" stroke="black" points="887.43,-191.75 887.43,-227.75 960.43,-227.75 960.43,-191.75 887.43,-191.75"/>
<text text-anchor="middle" x="923.93" y="-205.07" font-family="Times,serif" font-size="14.00">index.ts</text>
</g>
<!-- packages/starlight/utils/createTranslationSystem.ts&#45;&gt;packages/starlight/translations/index.ts -->
<g id="edge32" class="edge">
<title>packages/starlight/utils/createTranslationSystem.ts&#45;&gt;packages/starlight/translations/index.ts</title>
<path fill="none" stroke="#7cebdb" d="M853.01,-269.52C859.21,-267.18 865.23,-264.52 870.93,-261.5 882.82,-255.2 893.92,-245.45 902.86,-236.18"/>
<polygon fill="#7cebdb" stroke="#7cebdb" points="905.24,-238.77 909.4,-229.03 900.07,-234.04 905.24,-238.77"/>
</g>
<!-- packages/starlight/translations/index.ts&#45;&gt;packages/starlight/schemas/i18n.ts -->
<g id="edge34" class="edge">
<title>packages/starlight/translations/index.ts&#45;&gt;packages/starlight/schemas/i18n.ts</title>
<path fill="none" stroke="#9f639f" d="M945.57,-191.3C951.38,-186.31 957.55,-180.73 962.93,-175.25 970.49,-167.54 978.2,-158.61 984.9,-150.41"/>
<polygon fill="#9f639f" stroke="#9f639f" points="987.52,-152.74 991.04,-142.75 982.06,-148.37 987.52,-152.74"/>
</g>
</g>
</svg>
