<?xml version="1.0" encoding="UTF-8" standalone="no"?>
<!DOCTYPE svg PUBLIC "-//W3C//DTD SVG 1.1//EN"
 "http://www.w3.org/Graphics/SVG/1.1/DTD/svg11.dtd">
<!-- Generated by graphviz version 9.0.0 (0)
 -->
<!-- Title: Guix reverse&#45;bag Pages: 1 -->
<svg width="1579pt" height="404pt"
 viewBox="0.00 0.00 1578.88 404.00" xmlns="http://www.w3.org/2000/svg" xmlns:xlink="http://www.w3.org/1999/xlink">
<g id="graph0" class="graph" transform="scale(1 1) rotate(0) translate(4 400)">
<title>Guix reverse&#45;bag</title>
<polygon fill="white" stroke="none" points="-4,4 -4,-400 1574.88,-400 1574.88,4 -4,4"/>
<!-- /gnu/store/yrwf926574h3nbgzlarb68id7arryjx8&#45;clojure&#45;1.11.1.drv -->
<g id="node1" class="node">
<title>/gnu/store/yrwf926574h3nbgzlarb68id7arryjx8&#45;clojure&#45;1.11.1.drv</title>
<polygon fill="none" stroke="black" points="930,-396 815.75,-396 815.75,-360 930,-360 930,-396"/>
<text text-anchor="middle" x="872.88" y="-374.45" font-family="sans" font-size="14.00">clojure@1.11.1</text>
</g>
<!-- /gnu/store/qnxi23y8hsmr36afrsh9879lmsc5v9yn&#45;clojure&#45;data&#45;csv&#45;1.0.1.drv -->
<g id="node2" class="node">
<title>/gnu/store/qnxi23y8hsmr36afrsh9879lmsc5v9yn&#45;clojure&#45;data&#45;csv&#45;1.0.1.drv</title>
<polygon fill="none" stroke="black" points="163.75,-324 0,-324 0,-288 163.75,-288 163.75,-324"/>
<text text-anchor="middle" x="81.88" y="-302.45" font-family="sans" font-size="14.00">clojure&#45;data&#45;csv@1.0.1</text>
</g>
<!-- /gnu/store/yrwf926574h3nbgzlarb68id7arryjx8&#45;clojure&#45;1.11.1.drv&#45;&gt;/gnu/store/qnxi23y8hsmr36afrsh9879lmsc5v9yn&#45;clojure&#45;data&#45;csv&#45;1.0.1.drv -->
<g id="edge1" class="edge">
<title>/gnu/store/yrwf926574h3nbgzlarb68id7arryjx8&#45;clojure&#45;1.11.1.drv&#45;&gt;/gnu/store/qnxi23y8hsmr36afrsh9879lmsc5v9yn&#45;clojure&#45;data&#45;csv&#45;1.0.1.drv</title>
<path fill="none" stroke="#00cdcd" d="M815.47,-374.55C696.29,-369.04 413.48,-353.77 177.88,-324 177.02,-323.89 176.17,-323.78 175.31,-323.67"/>
<polygon fill="#00cdcd" stroke="#00cdcd" points="175.9,-320.22 165.51,-322.31 174.93,-327.15 175.9,-320.22"/>
</g>
<!-- /gnu/store/nf4yaddhn04i4mhxj5skii3p5pc123my&#45;clojure&#45;tools&#45;cli&#45;1.0.206.drv -->
<g id="node3" class="node">
<title>/gnu/store/nf4yaddhn04i4mhxj5skii3p5pc123my&#45;clojure&#45;tools&#45;cli&#45;1.0.206.drv</title>
<polygon fill="none" stroke="black" points="1542.88,-180 1364.88,-180 1364.88,-144 1542.88,-144 1542.88,-180"/>
<text text-anchor="middle" x="1453.88" y="-158.45" font-family="sans" font-size="14.00">clojure&#45;tools&#45;cli@1.0.206</text>
</g>
<!-- /gnu/store/yrwf926574h3nbgzlarb68id7arryjx8&#45;clojure&#45;1.11.1.drv&#45;&gt;/gnu/store/nf4yaddhn04i4mhxj5skii3p5pc123my&#45;clojure&#45;tools&#45;cli&#45;1.0.206.drv -->
<g id="edge2" class="edge">
<title>/gnu/store/yrwf926574h3nbgzlarb68id7arryjx8&#45;clojure&#45;1.11.1.drv&#45;&gt;/gnu/store/nf4yaddhn04i4mhxj5skii3p5pc123my&#45;clojure&#45;tools&#45;cli&#45;1.0.206.drv</title>
<path fill="none" stroke="#00cdcd" d="M930.47,-374.2C1055.8,-367.65 1344.95,-349.89 1380.88,-324 1424.57,-292.51 1442.66,-228.52 1449.72,-191.4"/>
<polygon fill="#00cdcd" stroke="#00cdcd" points="1453.12,-192.31 1451.38,-181.86 1446.22,-191.11 1453.12,-192.31"/>
</g>
<!-- /gnu/store/h1yzikkcpbnk538vv4mb7022hbrak09l&#45;clojure&#45;instaparse&#45;1.4.12.drv -->
<g id="node4" class="node">
<title>/gnu/store/h1yzikkcpbnk538vv4mb7022hbrak09l&#45;clojure&#45;instaparse&#45;1.4.12.drv</title>
<polygon fill="none" stroke="black" points="407.75,-324 220,-324 220,-288 407.75,-288 407.75,-324"/>
<text text-anchor="middle" x="313.88" y="-302.45" font-family="sans" font-size="14.00">clojure&#45;instaparse@1.4.12</text>
</g>
<!-- /gnu/store/yrwf926574h3nbgzlarb68id7arryjx8&#45;clojure&#45;1.11.1.drv&#45;&gt;/gnu/store/h1yzikkcpbnk538vv4mb7022hbrak09l&#45;clojure&#45;instaparse&#45;1.4.12.drv -->
<g id="edge3" class="edge">
<title>/gnu/store/yrwf926574h3nbgzlarb68id7arryjx8&#45;clojure&#45;1.11.1.drv&#45;&gt;/gnu/store/h1yzikkcpbnk538vv4mb7022hbrak09l&#45;clojure&#45;instaparse&#45;1.4.12.drv</title>
<path fill="none" stroke="#00cdcd" d="M815.53,-371.23C731.11,-362.53 568.13,-344.99 419.29,-324.3"/>
<polygon fill="#00cdcd" stroke="#00cdcd" points="420.03,-320.87 409.65,-322.95 419.06,-327.81 420.03,-320.87"/>
</g>
<!-- /gnu/store/knqknbzncj1vljg33hdszb2yrh2d7r4y&#45;clojure&#45;test&#45;check&#45;1.1.1.drv -->
<g id="node5" class="node">
<title>/gnu/store/knqknbzncj1vljg33hdszb2yrh2d7r4y&#45;clojure&#45;test&#45;check&#45;1.1.1.drv</title>
<polygon fill="none" stroke="black" points="604.25,-324 425.5,-324 425.5,-288 604.25,-288 604.25,-324"/>
<text text-anchor="middle" x="514.88" y="-302.45" font-family="sans" font-size="14.00">clojure&#45;test&#45;check@1.1.1</text>
</g>
<!-- /gnu/store/yrwf926574h3nbgzlarb68id7arryjx8&#45;clojure&#45;1.11.1.drv&#45;&gt;/gnu/store/knqknbzncj1vljg33hdszb2yrh2d7r4y&#45;clojure&#45;test&#45;check&#45;1.1.1.drv -->
<g id="edge4" class="edge">
<title>/gnu/store/yrwf926574h3nbgzlarb68id7arryjx8&#45;clojure&#45;1.11.1.drv&#45;&gt;/gnu/store/knqknbzncj1vljg33hdszb2yrh2d7r4y&#45;clojure&#45;test&#45;check&#45;1.1.1.drv</title>
<path fill="none" stroke="#00cdcd" d="M815.36,-365.75C761.45,-355.21 679.72,-339.23 615.1,-326.6"/>
<polygon fill="#00cdcd" stroke="#00cdcd" points="616.03,-323.21 605.55,-324.73 614.69,-330.08 616.03,-323.21"/>
</g>
<!-- /gnu/store/hwr0j5l7pd4gfz8pj2my2liv6r6m5gq7&#45;clojure&#45;core&#45;match&#45;1.0.0.drv -->
<g id="node6" class="node">
<title>/gnu/store/hwr0j5l7pd4gfz8pj2my2liv6r6m5gq7&#45;clojure&#45;core&#45;match&#45;1.0.0.drv</title>
<polygon fill="none" stroke="black" points="807.25,-324 622.5,-324 622.5,-288 807.25,-288 807.25,-324"/>
<text text-anchor="middle" x="714.88" y="-302.45" font-family="sans" font-size="14.00">clojure&#45;core&#45;match@1.0.0</text>
</g>
<!-- /gnu/store/yrwf926574h3nbgzlarb68id7arryjx8&#45;clojure&#45;1.11.1.drv&#45;&gt;/gnu/store/hwr0j5l7pd4gfz8pj2my2liv6r6m5gq7&#45;clojure&#45;core&#45;match&#45;1.0.0.drv -->
<g id="edge5" class="edge">
<title>/gnu/store/yrwf926574h3nbgzlarb68id7arryjx8&#45;clojure&#45;1.11.1.drv&#45;&gt;/gnu/store/hwr0j5l7pd4gfz8pj2my2liv6r6m5gq7&#45;clojure&#45;core&#45;match&#45;1.0.0.drv</title>
<path fill="none" stroke="#00cdcd" d="M833.41,-359.52C812.5,-350.25 786.61,-338.78 764.37,-328.93"/>
<polygon fill="#00cdcd" stroke="#00cdcd" points="766.05,-325.85 755.49,-324.99 763.22,-332.25 766.05,-325.85"/>
</g>
<!-- /gnu/store/f4bwnjada5p2h1pi01f0apcv69g5xjv2&#45;clojure&#45;tools&#45;gitlibs&#45;2.4.181.drv -->
<g id="node7" class="node">
<title>/gnu/store/f4bwnjada5p2h1pi01f0apcv69g5xjv2&#45;clojure&#45;tools&#45;gitlibs&#45;2.4.181.drv</title>
<polygon fill="none" stroke="black" points="469.62,-252 266.12,-252 266.12,-216 469.62,-216 469.62,-252"/>
<text text-anchor="middle" x="367.88" y="-230.45" font-family="sans" font-size="14.00">clojure&#45;tools&#45;gitlibs@2.4.181</text>
</g>
<!-- /gnu/store/yrwf926574h3nbgzlarb68id7arryjx8&#45;clojure&#45;1.11.1.drv&#45;&gt;/gnu/store/f4bwnjada5p2h1pi01f0apcv69g5xjv2&#45;clojure&#45;tools&#45;gitlibs&#45;2.4.181.drv -->
<g id="edge6" class="edge">
<title>/gnu/store/yrwf926574h3nbgzlarb68id7arryjx8&#45;clojure&#45;1.11.1.drv&#45;&gt;/gnu/store/f4bwnjada5p2h1pi01f0apcv69g5xjv2&#45;clojure&#45;tools&#45;gitlibs&#45;2.4.181.drv</title>
<path fill="none" stroke="#00cdcd" d="M815.52,-376.75C662.16,-375.49 251.49,-368 210.88,-324 182.62,-293.39 226.05,-270.57 274.34,-255.71"/>
<polygon fill="#00cdcd" stroke="#00cdcd" points="275.29,-259.08 283.89,-252.9 273.31,-252.36 275.29,-259.08"/>
</g>
<!-- /gnu/store/pw5ckk23mqvqzrp1a345wgjj2yx1djx3&#45;clojure&#45;data&#45;codec&#45;0.1.1.drv -->
<g id="node8" class="node">
<title>/gnu/store/pw5ckk23mqvqzrp1a345wgjj2yx1djx3&#45;clojure&#45;data&#45;codec&#45;0.1.1.drv</title>
<polygon fill="none" stroke="black" points="844.75,-252 663,-252 663,-216 844.75,-216 844.75,-252"/>
<text text-anchor="middle" x="753.88" y="-230.45" font-family="sans" font-size="14.00">clojure&#45;data&#45;codec@0.1.1</text>
</g>
<!-- /gnu/store/yrwf926574h3nbgzlarb68id7arryjx8&#45;clojure&#45;1.11.1.drv&#45;&gt;/gnu/store/pw5ckk23mqvqzrp1a345wgjj2yx1djx3&#45;clojure&#45;data&#45;codec&#45;0.1.1.drv -->
<g id="edge7" class="edge">
<title>/gnu/store/yrwf926574h3nbgzlarb68id7arryjx8&#45;clojure&#45;1.11.1.drv&#45;&gt;/gnu/store/pw5ckk23mqvqzrp1a345wgjj2yx1djx3&#45;clojure&#45;data&#45;codec&#45;0.1.1.drv</title>
<path fill="none" stroke="#00cdcd" d="M863.74,-359.57C853.47,-340.83 835.64,-310.69 815.88,-288 807.03,-277.84 796.19,-267.91 786.07,-259.45"/>
<polygon fill="#00cdcd" stroke="#00cdcd" points="788.57,-256.97 778.6,-253.37 784.15,-262.4 788.57,-256.97"/>
</g>
<!-- /gnu/store/wxbvs1c2fh0qyqwp63049k26zq1qswm4&#45;clojure&#45;algo&#45;generic&#45;0.1.3.drv -->
<g id="node9" class="node">
<title>/gnu/store/wxbvs1c2fh0qyqwp63049k26zq1qswm4&#45;clojure&#45;algo&#45;generic&#45;0.1.3.drv</title>
<polygon fill="none" stroke="black" points="1094.38,-324 901.38,-324 901.38,-288 1094.38,-288 1094.38,-324"/>
<text text-anchor="middle" x="997.88" y="-302.45" font-family="sans" font-size="14.00">clojure&#45;algo&#45;generic@0.1.3</text>
</g>
<!-- /gnu/store/yrwf926574h3nbgzlarb68id7arryjx8&#45;clojure&#45;1.11.1.drv&#45;&gt;/gnu/store/wxbvs1c2fh0qyqwp63049k26zq1qswm4&#45;clojure&#45;algo&#45;generic&#45;0.1.3.drv -->
<g id="edge8" class="edge">
<title>/gnu/store/yrwf926574h3nbgzlarb68id7arryjx8&#45;clojure&#45;1.11.1.drv&#45;&gt;/gnu/store/wxbvs1c2fh0qyqwp63049k26zq1qswm4&#45;clojure&#45;algo&#45;generic&#45;0.1.3.drv</title>
<path fill="none" stroke="#00cdcd" d="M904.1,-359.52C920.17,-350.51 939.98,-339.42 957.23,-329.76"/>
<polygon fill="#00cdcd" stroke="#00cdcd" points="958.72,-332.94 965.73,-325 955.3,-326.83 958.72,-332.94"/>
</g>
<!-- /gnu/store/20rsxk4w46sqykm1vbsij0f0srfg4kgw&#45;clojure&#45;algo&#45;monads&#45;0.1.6.drv -->
<g id="node10" class="node">
<title>/gnu/store/20rsxk4w46sqykm1vbsij0f0srfg4kgw&#45;clojure&#45;algo&#45;monads&#45;0.1.6.drv</title>
<polygon fill="none" stroke="black" points="1269.5,-252 1074.25,-252 1074.25,-216 1269.5,-216 1269.5,-252"/>
<text text-anchor="middle" x="1171.88" y="-230.45" font-family="sans" font-size="14.00">clojure&#45;algo&#45;monads@0.1.6</text>
</g>
<!-- /gnu/store/yrwf926574h3nbgzlarb68id7arryjx8&#45;clojure&#45;1.11.1.drv&#45;&gt;/gnu/store/20rsxk4w46sqykm1vbsij0f0srfg4kgw&#45;clojure&#45;algo&#45;monads&#45;0.1.6.drv -->
<g id="edge9" class="edge">
<title>/gnu/store/yrwf926574h3nbgzlarb68id7arryjx8&#45;clojure&#45;1.11.1.drv&#45;&gt;/gnu/store/20rsxk4w46sqykm1vbsij0f0srfg4kgw&#45;clojure&#45;algo&#45;monads&#45;0.1.6.drv</title>
<path fill="none" stroke="#00cdcd" d="M930.42,-374.43C979.62,-369.86 1050.57,-357.44 1102.88,-324 1126.72,-308.75 1145.66,-282.29 1157.62,-262.17"/>
<polygon fill="#00cdcd" stroke="#00cdcd" points="1160.57,-264.06 1162.48,-253.64 1154.49,-260.6 1160.57,-264.06"/>
</g>
<!-- /gnu/store/8j1rkd33idqk1zbdmn8spd7x44n47q4n&#45;clojure&#45;tools&#45;deps&#45;alpha&#45;0.14.1212.drv -->
<g id="node11" class="node">
<title>/gnu/store/8j1rkd33idqk1zbdmn8spd7x44n47q4n&#45;clojure&#45;tools&#45;deps&#45;alpha&#45;0.14.1212.drv</title>
<polygon fill="none" stroke="black" points="1463,-108 1210.75,-108 1210.75,-72 1463,-72 1463,-108"/>
<text text-anchor="middle" x="1336.88" y="-86.45" font-family="sans" font-size="14.00">clojure&#45;tools&#45;deps&#45;alpha@0.14.1212</text>
</g>
<!-- /gnu/store/yrwf926574h3nbgzlarb68id7arryjx8&#45;clojure&#45;1.11.1.drv&#45;&gt;/gnu/store/8j1rkd33idqk1zbdmn8spd7x44n47q4n&#45;clojure&#45;tools&#45;deps&#45;alpha&#45;0.14.1212.drv -->
<g id="edge10" class="edge">
<title>/gnu/store/yrwf926574h3nbgzlarb68id7arryjx8&#45;clojure&#45;1.11.1.drv&#45;&gt;/gnu/store/8j1rkd33idqk1zbdmn8spd7x44n47q4n&#45;clojure&#45;tools&#45;deps&#45;alpha&#45;0.14.1212.drv</title>
<path fill="none" stroke="#00cdcd" d="M930.3,-374.8C1050.64,-369.61 1320.45,-354.65 1347.88,-324 1374.16,-294.62 1354.1,-175.14 1342.98,-119.62"/>
<polygon fill="#00cdcd" stroke="#00cdcd" points="1346.44,-119.06 1341.01,-109.97 1339.59,-120.47 1346.44,-119.06"/>
</g>
<!-- /gnu/store/qdhg0sm0vvr9i303cfv1all0s8169akv&#45;clojure&#45;tools&#45;1.11.1.1165.drv -->
<g id="node12" class="node">
<title>/gnu/store/qdhg0sm0vvr9i303cfv1all0s8169akv&#45;clojure&#45;tools&#45;1.11.1.1165.drv</title>
<polygon fill="none" stroke="black" points="1547.75,-36 1360,-36 1360,0 1547.75,0 1547.75,-36"/>
<text text-anchor="middle" x="1453.88" y="-14.45" font-family="sans" font-size="14.00">clojure&#45;tools@1.11.1.1165</text>
</g>
<!-- /gnu/store/yrwf926574h3nbgzlarb68id7arryjx8&#45;clojure&#45;1.11.1.drv&#45;&gt;/gnu/store/qdhg0sm0vvr9i303cfv1all0s8169akv&#45;clojure&#45;tools&#45;1.11.1.1165.drv -->
<g id="edge11" class="edge">
<title>/gnu/store/yrwf926574h3nbgzlarb68id7arryjx8&#45;clojure&#45;1.11.1.drv&#45;&gt;/gnu/store/qdhg0sm0vvr9i303cfv1all0s8169akv&#45;clojure&#45;tools&#45;1.11.1.1165.drv</title>
<path fill="none" stroke="#00cdcd" d="M930.29,-377.47C1097.26,-377.32 1570.88,-365.39 1570.88,-235 1570.88,-235 1570.88,-235 1570.88,-161 1570.88,-110.34 1525.97,-67.95 1491.8,-43.03"/>
<polygon fill="#00cdcd" stroke="#00cdcd" points="1493.92,-40.24 1483.73,-37.34 1489.89,-45.96 1493.92,-40.24"/>
</g>
<!-- /gnu/store/nmvali2ibz4gdqmvr03mbm6hj7y1gl7z&#45;clojure&#45;tools&#45;macro&#45;0.1.5.drv -->
<g id="node13" class="node">
<title>/gnu/store/nmvali2ibz4gdqmvr03mbm6hj7y1gl7z&#45;clojure&#45;tools&#45;macro&#45;0.1.5.drv</title>
<polygon fill="none" stroke="black" points="1338.75,-324 1151,-324 1151,-288 1338.75,-288 1338.75,-324"/>
<text text-anchor="middle" x="1244.88" y="-302.45" font-family="sans" font-size="14.00">clojure&#45;tools&#45;macro@0.1.5</text>
</g>
<!-- /gnu/store/yrwf926574h3nbgzlarb68id7arryjx8&#45;clojure&#45;1.11.1.drv&#45;&gt;/gnu/store/nmvali2ibz4gdqmvr03mbm6hj7y1gl7z&#45;clojure&#45;tools&#45;macro&#45;0.1.5.drv -->
<g id="edge12" class="edge">
<title>/gnu/store/yrwf926574h3nbgzlarb68id7arryjx8&#45;clojure&#45;1.11.1.drv&#45;&gt;/gnu/store/nmvali2ibz4gdqmvr03mbm6hj7y1gl7z&#45;clojure&#45;tools&#45;macro&#45;0.1.5.drv</title>
<path fill="none" stroke="#00cdcd" d="M930.18,-366.22C986.17,-355.68 1072.67,-339.4 1140.82,-326.58"/>
<polygon fill="#00cdcd" stroke="#00cdcd" points="1141.36,-330.04 1150.54,-324.75 1140.06,-323.16 1141.36,-330.04"/>
</g>
<!-- /gnu/store/d1j1adyv8aymkghbgahqpab0wqj0vci2&#45;clojure&#45;data&#45;xml&#45;0.2.0&#45;alpha6.drv -->
<g id="node14" class="node">
<title>/gnu/store/d1j1adyv8aymkghbgahqpab0wqj0vci2&#45;clojure&#45;data&#45;xml&#45;0.2.0&#45;alpha6.drv</title>
<polygon fill="none" stroke="black" points="981,-180 764.75,-180 764.75,-144 981,-144 981,-180"/>
<text text-anchor="middle" x="872.88" y="-158.45" font-family="sans" font-size="14.00">clojure&#45;data&#45;xml@0.2.0&#45;alpha6</text>
</g>
<!-- /gnu/store/yrwf926574h3nbgzlarb68id7arryjx8&#45;clojure&#45;1.11.1.drv&#45;&gt;/gnu/store/d1j1adyv8aymkghbgahqpab0wqj0vci2&#45;clojure&#45;data&#45;xml&#45;0.2.0&#45;alpha6.drv -->
<g id="edge13" class="edge">
<title>/gnu/store/yrwf926574h3nbgzlarb68id7arryjx8&#45;clojure&#45;1.11.1.drv&#45;&gt;/gnu/store/d1j1adyv8aymkghbgahqpab0wqj0vci2&#45;clojure&#45;data&#45;xml&#45;0.2.0&#45;alpha6.drv</title>
<path fill="none" stroke="#00cdcd" d="M872.88,-359.85C872.88,-323.14 872.88,-236.66 872.88,-191.53"/>
<polygon fill="#00cdcd" stroke="#00cdcd" points="876.38,-191.75 872.88,-181.75 869.38,-191.75 876.38,-191.75"/>
</g>
<!-- /gnu/store/nf4yaddhn04i4mhxj5skii3p5pc123my&#45;clojure&#45;tools&#45;cli&#45;1.0.206.drv&#45;&gt;/gnu/store/8j1rkd33idqk1zbdmn8spd7x44n47q4n&#45;clojure&#45;tools&#45;deps&#45;alpha&#45;0.14.1212.drv -->
<g id="edge14" class="edge">
<title>/gnu/store/nf4yaddhn04i4mhxj5skii3p5pc123my&#45;clojure&#45;tools&#45;cli&#45;1.0.206.drv&#45;&gt;/gnu/store/8j1rkd33idqk1zbdmn8spd7x44n47q4n&#45;clojure&#45;tools&#45;deps&#45;alpha&#45;0.14.1212.drv</title>
<path fill="none" stroke="darkviolet" d="M1424.65,-143.52C1409.74,-134.6 1391.41,-123.63 1375.37,-114.03"/>
<polygon fill="darkviolet" stroke="darkviolet" points="1377.4,-111.17 1367.02,-109.04 1373.81,-117.18 1377.4,-111.17"/>
</g>
<!-- /gnu/store/knqknbzncj1vljg33hdszb2yrh2d7r4y&#45;clojure&#45;test&#45;check&#45;1.1.1.drv&#45;&gt;/gnu/store/pw5ckk23mqvqzrp1a345wgjj2yx1djx3&#45;clojure&#45;data&#45;codec&#45;0.1.1.drv -->
<g id="edge16" class="edge">
<title>/gnu/store/knqknbzncj1vljg33hdszb2yrh2d7r4y&#45;clojure&#45;test&#45;check&#45;1.1.1.drv&#45;&gt;/gnu/store/pw5ckk23mqvqzrp1a345wgjj2yx1djx3&#45;clojure&#45;data&#45;codec&#45;0.1.1.drv</title>
<path fill="none" stroke="darkgoldenrod" d="M574.57,-287.52C607.63,-277.83 648.92,-265.74 683.54,-255.6"/>
<polygon fill="darkgoldenrod" stroke="darkgoldenrod" points="684.46,-258.98 693.08,-252.81 682.5,-252.26 684.46,-258.98"/>
</g>
<!-- /gnu/store/f4bwnjada5p2h1pi01f0apcv69g5xjv2&#45;clojure&#45;tools&#45;gitlibs&#45;2.4.181.drv&#45;&gt;/gnu/store/8j1rkd33idqk1zbdmn8spd7x44n47q4n&#45;clojure&#45;tools&#45;deps&#45;alpha&#45;0.14.1212.drv -->
<g id="edge19" class="edge">
<title>/gnu/store/f4bwnjada5p2h1pi01f0apcv69g5xjv2&#45;clojure&#45;tools&#45;gitlibs&#45;2.4.181.drv&#45;&gt;/gnu/store/8j1rkd33idqk1zbdmn8spd7x44n47q4n&#45;clojure&#45;tools&#45;deps&#45;alpha&#45;0.14.1212.drv</title>
<path fill="none" stroke="dimgrey" d="M431.89,-215.53C508.39,-195.3 640.54,-162.4 755.88,-144 906.55,-119.96 1081.08,-105.86 1199.21,-98.33"/>
<polygon fill="dimgrey" stroke="dimgrey" points="1199.19,-101.83 1208.95,-97.71 1198.75,-94.85 1199.19,-101.83"/>
</g>
<!-- /gnu/store/pw5ckk23mqvqzrp1a345wgjj2yx1djx3&#45;clojure&#45;data&#45;codec&#45;0.1.1.drv&#45;&gt;/gnu/store/d1j1adyv8aymkghbgahqpab0wqj0vci2&#45;clojure&#45;data&#45;xml&#45;0.2.0&#45;alpha6.drv -->
<g id="edge17" class="edge">
<title>/gnu/store/pw5ckk23mqvqzrp1a345wgjj2yx1djx3&#45;clojure&#45;data&#45;codec&#45;0.1.1.drv&#45;&gt;/gnu/store/d1j1adyv8aymkghbgahqpab0wqj0vci2&#45;clojure&#45;data&#45;xml&#45;0.2.0&#45;alpha6.drv</title>
<path fill="none" stroke="dimgrey" d="M783.6,-215.52C798.76,-206.6 817.4,-195.63 833.72,-186.03"/>
<polygon fill="dimgrey" stroke="dimgrey" points="835.38,-189.11 842.23,-181.03 831.83,-183.08 835.38,-189.11"/>
</g>
<!-- /gnu/store/8j1rkd33idqk1zbdmn8spd7x44n47q4n&#45;clojure&#45;tools&#45;deps&#45;alpha&#45;0.14.1212.drv&#45;&gt;/gnu/store/qdhg0sm0vvr9i303cfv1all0s8169akv&#45;clojure&#45;tools&#45;1.11.1.1165.drv -->
<g id="edge15" class="edge">
<title>/gnu/store/8j1rkd33idqk1zbdmn8spd7x44n47q4n&#45;clojure&#45;tools&#45;deps&#45;alpha&#45;0.14.1212.drv&#45;&gt;/gnu/store/qdhg0sm0vvr9i303cfv1all0s8169akv&#45;clojure&#45;tools&#45;1.11.1.1165.drv</title>
<path fill="none" stroke="darkseagreen" d="M1366.1,-71.52C1381.01,-62.6 1399.34,-51.63 1415.38,-42.03"/>
<polygon fill="darkseagreen" stroke="darkseagreen" points="1416.94,-45.18 1423.73,-37.04 1413.35,-39.17 1416.94,-45.18"/>
</g>
<!-- /gnu/store/nmvali2ibz4gdqmvr03mbm6hj7y1gl7z&#45;clojure&#45;tools&#45;macro&#45;0.1.5.drv&#45;&gt;/gnu/store/20rsxk4w46sqykm1vbsij0f0srfg4kgw&#45;clojure&#45;algo&#45;monads&#45;0.1.6.drv -->
<g id="edge20" class="edge">
<title>/gnu/store/nmvali2ibz4gdqmvr03mbm6hj7y1gl7z&#45;clojure&#45;tools&#45;macro&#45;0.1.5.drv&#45;&gt;/gnu/store/20rsxk4w46sqykm1vbsij0f0srfg4kgw&#45;clojure&#45;algo&#45;monads&#45;0.1.6.drv</title>
<path fill="none" stroke="blue" d="M1226.83,-287.7C1218.14,-279.37 1207.56,-269.22 1198.02,-260.07"/>
<polygon fill="blue" stroke="blue" points="1200.7,-257.79 1191.06,-253.39 1195.85,-262.84 1200.7,-257.79"/>
</g>
<!-- /gnu/store/d1j1adyv8aymkghbgahqpab0wqj0vci2&#45;clojure&#45;data&#45;xml&#45;0.2.0&#45;alpha6.drv&#45;&gt;/gnu/store/8j1rkd33idqk1zbdmn8spd7x44n47q4n&#45;clojure&#45;tools&#45;deps&#45;alpha&#45;0.14.1212.drv -->
<g id="edge18" class="edge">
<title>/gnu/store/d1j1adyv8aymkghbgahqpab0wqj0vci2&#45;clojure&#45;data&#45;xml&#45;0.2.0&#45;alpha6.drv&#45;&gt;/gnu/store/8j1rkd33idqk1zbdmn8spd7x44n47q4n&#45;clojure&#45;tools&#45;deps&#45;alpha&#45;0.14.1212.drv</title>
<path fill="none" stroke="dimgrey" d="M981.37,-144.63C1049.63,-134.33 1138.02,-121 1209.59,-110.2"/>
<polygon fill="dimgrey" stroke="dimgrey" points="1210.06,-113.67 1219.43,-108.72 1209.02,-106.75 1210.06,-113.67"/>
</g>
</g>
</svg>
