<?xml version="1.0" encoding="UTF-8" standalone="no"?>
<!DOCTYPE svg PUBLIC "-//W3C//DTD SVG 1.1//EN"
 "http://www.w3.org/Graphics/SVG/1.1/DTD/svg11.dtd">
<!-- Generated by graphviz version 11.0.0 (0)
 -->
<!-- Title: graphname Pages: 1 -->
<svg width="204pt" height="175pt"
 viewBox="0.00 0.00 204.00 175.25" xmlns="http://www.w3.org/2000/svg" xmlns:xlink="http://www.w3.org/1999/xlink">
<g id="graph0" class="graph" transform="scale(1 1) rotate(0) translate(4 171.25)">
<title>graphname</title>
<polygon fill="white" stroke="none" points="-4,4 -4,-171.25 200,-171.25 200,4 -4,4"/>
<g id="clust2" class="cluster">
<title>cluster_1</title>
<polygon fill="none" stroke="black" points="8,-8 8,-159.25 188,-159.25 188,-8 8,-8"/>
<text text-anchor="middle" x="98" y="-141.95" font-family="Times,serif" font-size="14.00">src</text>
</g>
<!-- src/index.ts -->
<g id="node1" class="node">
<title>src/index.ts</title>
<polygon fill="none" stroke="black" points="106.5,-89.5 106.5,-125.5 179.5,-125.5 179.5,-89.5 106.5,-89.5"/>
<text text-anchor="middle" x="143" y="-102.83" font-family="Times,serif" font-size="14.00">index.ts</text>
</g>
<!-- src/schema.ts -->
<g id="node2" class="node">
<title>src/schema.ts</title>
<polygon fill="none" stroke="black" points="16,-16.5 16,-52.5 104,-52.5 104,-16.5 16,-16.5"/>
<text text-anchor="middle" x="60" y="-29.82" font-family="Times,serif" font-size="14.00">schema.ts</text>
</g>
<!-- src/index.ts&#45;&gt;src/schema.ts -->
<g id="edge1" class="edge">
<title>src/index.ts&#45;&gt;src/schema.ts</title>
<path fill="none" stroke="#68898f" d="M122.91,-89.31C112.69,-80.57 100.08,-69.78 88.84,-60.17"/>
<polygon fill="#68898f" stroke="#68898f" points="91.22,-57.6 81.34,-53.76 86.67,-62.92 91.22,-57.6"/>
</g>
<!-- src/util.ts -->
<g id="node3" class="node">
<title>src/util.ts</title>
<polygon fill="none" stroke="black" points="122,-16.5 122,-52.5 180,-52.5 180,-16.5 122,-16.5"/>
<text text-anchor="middle" x="151" y="-29.82" font-family="Times,serif" font-size="14.00">util.ts</text>
</g>
<!-- src/index.ts&#45;&gt;src/util.ts -->
<g id="edge2" class="edge">
<title>src/index.ts&#45;&gt;src/util.ts</title>
<path fill="none" stroke="#68898f" d="M139.06,-89.31C139.12,-81.64 139.91,-72.39 141.19,-63.74"/>
<polygon fill="#68898f" stroke="#68898f" points="144.62,-64.48 142.95,-54.02 137.73,-63.24 144.62,-64.48"/>
</g>
<!-- src/util.ts&#45;&gt;src/index.ts -->
<g id="edge3" class="edge">
<title>src/util.ts&#45;&gt;src/index.ts</title>
<path fill="none" stroke="#11f02e" d="M154.94,-52.53C154.89,-60.18 154.11,-69.42 152.83,-78.08"/>
<polygon fill="#11f02e" stroke="#11f02e" points="149.4,-77.36 151.08,-87.82 156.29,-78.6 149.4,-77.36"/>
</g>
</g>
</svg>
